inDegrees=no
num_controls=7
num_derivatives=13
num_iterations=173
num_multipliers=7
num_parameters=0
num_slacks=7
num_states=26
objective=5.600717
objective_accelerations=0.675072
objective_balance=0.043019
objective_effort=0.248547
objective_height=4.522463
objective_ligament=0.111616
solver_duration=1920.612830
status=Solve_Succeeded
success=true
DataType=double
version=3
OpenSimVersion=4.4-2022-07-23-0e9fedc
endheader
time	/jointset/ground_pelvis/pelvis_tilt/value	/jointset/ground_pelvis/pelvis_tx/value	/jointset/ground_pelvis/pelvis_ty/value	/jointset/hip_l/hip_flexion_l/value	/jointset/hip_l/hip_adduction_l/value	/jointset/hip_l/hip_rotation_l/value	/jointset/back/lumbar_extension/value	/jointset/patellofemoral_l/patellar_flexion_l/value	/jointset/knee_l/knee_flexion_l/value	/jointset/knee_l/knee_adduction_l/value	/jointset/knee_l/knee_rotation_l/value	/jointset/ankle_l/ankle_angle_l/value	/jointset/subtalar_l/subtalar_angle_l/value	/jointset/ground_pelvis/pelvis_tilt/speed	/jointset/ground_pelvis/pelvis_tx/speed	/jointset/ground_pelvis/pelvis_ty/speed	/jointset/hip_l/hip_flexion_l/speed	/jointset/hip_l/hip_adduction_l/speed	/jointset/hip_l/hip_rotation_l/speed	/jointset/back/lumbar_extension/speed	/jointset/patellofemoral_l/patellar_flexion_l/speed	/jointset/knee_l/knee_flexion_l/speed	/jointset/knee_l/knee_adduction_l/speed	/jointset/knee_l/knee_rotation_l/speed	/jointset/ankle_l/ankle_angle_l/speed	/jointset/subtalar_l/subtalar_angle_l/speed	/forceset/tau_hip_flexion_l	/forceset/tau_hip_adduction_l	/forceset/tau_hip_rotation_l	/forceset/tau_knee_flexion_l	/forceset/tau_ankle_angle_l	/forceset/tau_subtalar_angle_l	/forceset/tau_lumbar_extension	lambda_cid13_p0	lambda_cid13_p1	lambda_cid13_p2	lambda_cid13_p3	lambda_cid13_p4	lambda_cid13_p5	lambda_cid14_p0	/jointset/ground_pelvis/pelvis_tilt/accel	/jointset/ground_pelvis/pelvis_tx/accel	/jointset/ground_pelvis/pelvis_ty/accel	/jointset/hip_l/hip_flexion_l/accel	/jointset/hip_l/hip_adduction_l/accel	/jointset/hip_l/hip_rotation_l/accel	/jointset/back/lumbar_extension/accel	/jointset/patellofemoral_l/patellar_flexion_l/accel	/jointset/knee_l/knee_flexion_l/accel	/jointset/knee_l/knee_adduction_l/accel	/jointset/knee_l/knee_rotation_l/accel	/jointset/ankle_l/ankle_angle_l/accel	/jointset/subtalar_l/subtalar_angle_l/accel	gamma_cid13_p0	gamma_cid13_p1	gamma_cid13_p2	gamma_cid13_p3	gamma_cid13_p4	gamma_cid13_p5	gamma_cid14_p0
0.5	-0.2436537879318288	0.02180077141443051	0.7732571585380853	0.935174774480108	-0.4463474707196621	-0.2301073740064979	-0.2505165402724477	0.8538163427566633	0.8538163427566652	-0.1134888176503282	-0.1686410592925645	0.2246326686710781	0.02374301061762136	-0.518242789226281	-0.08223707499411678	-0.4933166781837269	2.051881672936533	-0.2338230423337356	0.7954820100629126	-0.1381986961216374	2.109554011655123	2.10955401165517	0.1510925317195551	-0.04153534740477433	0.7682503197393526	0.1627341148865127	-0.1263161787311985	0.0293742434846636	-0.01333629372189418	-0.2297979609808018	-0.00138575916830744	0.03744557944113505	0.1386405668697736	-32.47094954160012	-14.9627202225111	7.058883132395176	-0.2271195303637638	-522.3564560449515	-68.16738428291512	-23.13693411068255	0.4583374755014495	0.3719080670180696	-0.4853827450492419	-1.001506257883379	0.7073211026735108	-0.3158154498922094	0.9906638137187519	-1.396333154636444	-1.396333154636444	0.003730771675727096	0.1230364026305083	-0.6699562385009855	0.588923389472584	-6.315545611292823e-07	-3.077520964621795e-07	3.408291431264603e-06	1.851068579770274e-07	-6.616897415899054e-07	-6.567404444559818e-07	-4.81021702413409e-07
0.51	-0.248812045227063	0.020997089606297	0.7683008188739028	0.9556394966035512	-0.4486513417330827	-0.222166535167843	-0.2518497443269333	0.874838766813269	0.8748387668132697	-0.1119822107004386	-0.1690495122759847	0.2322801146956563	0.0253977031685619	-0.5133380712557496	-0.07849513408046099	-0.497843672622748	2.040778377603246	-0.2269419170799579	0.7925774751541588	-0.1284599328237394	2.094648233357724	2.094648233357742	0.1502256936352185	-0.04015989198539838	0.7611290198336197	0.168169806746577	-0.1304759768376134	0.03057512914877208	-0.01317932921894127	-0.232953449490264	-0.004071549360044903	0.03743452055837683	0.1419463871092523	-33.49314713922445	-14.7358612351752	6.973510322056171	0.1724103887926634	-525.614379440756	-67.95159642236591	-22.13732721857912	0.5170497343470203	0.3760002361920773	-0.420351234972193	-1.207488957031035	0.6794335356823548	-0.2944363939677466	0.9628098806150122	-1.579990164003539	-1.579990164008048	-0.1322880754059126	0.1447616051576987	-0.749707228576598	0.5153410427219305	-6.019590509337172e-07	-1.572142091292979e-07	3.42177116877689e-06	2.17031239343815e-07	-6.458432984424919e-07	-5.288250107428876e-07	-4.662125756299104e-07
0.52	-0.2539191531872889	0.02023095983383062	0.7633024105770014	0.9759846362164654	-0.4508862164341749	-0.2142580744547968	-0.2530860952898821	0.8957036750875577	0.8957036750875577	-0.1104843515267756	-0.1694442184064992	0.2398530496487834	0.02710564242979283	-0.5080129222244943	-0.0747266678606915	-0.5017304047275156	2.027965170830774	-0.2200237798680806	0.789006384941373	-0.1188280778142533	2.078050855191846	2.078050855191832	0.1493429764741795	-0.0387859768233596	0.7533481054492002	0.1733834569445842	-0.1346357749440305	0.03177601481287703	-0.01302236471596034	-0.2361089379997287	-0.006757339551784023	0.03742346167561247	0.1452522073487304	-34.51702237828235	-14.50829985194639	6.887561362080888	0.5338342334186629	-528.9181655406018	-67.79611405389075	-21.14473184280986	0.5424236876462696	0.3772131282407962	-0.3573302781985429	-1.343488545720071	0.7147234942934699	-0.4491265106986367	0.9692821560363744	-1.73465312833255	-1.734653128332561	0.0005549563352670799	0.1227283511630794	-0.8018791342383403	0.544515057061148	-5.687720001161116e-07	-7.577547535961938e-09	3.417314817246371e-06	2.489169414913347e-07	-6.299074977322322e-07	-3.956706072972711e-07	-4.489683237166212e-07
0.53	-0.2589710146261557	0.01950259048816725	0.7582683719271981	0.9961933570460707	-0.4530516780590251	-0.2063882498240405	-0.2542267294494794	0.9163943258852634	0.9163943258852637	-0.1089954844424377	-0.1698249448530968	0.2473449794494407	0.02886468594505967	-0.5022924937317594	-0.07094795466857837	-0.5049661181475577	2.013504720927367	-0.213065255247387	0.7848561883306928	-0.1093291712158267	2.059809836854742	2.059809836854731	0.1484234942726244	-0.0373623331854223	0.7449340431593287	0.1783845391177644	-0.1386962227161112	0.03282520027135106	-0.01279351667065842	-0.2394137493810907	-0.009350465964889396	0.03728708753114236	0.14845210665954	-35.52057752049038	-14.21798248634036	6.77802415655323	0.9596550052978124	-532.2602440912074	-67.57891520705553	-20.16370644407158	0.59680522105809	0.3781405381567292	-0.2901351185063475	-1.538555135958197	0.6864234151139399	-0.4137067631413703	0.9356323451804367	-1.909158328440937	-1.909158328440518	-0.1391391937396803	0.1523921174212594	-0.8767341498181902	0.4713878652706603	-5.301675154276443e-07	1.29712965506281e-07	3.375304172609938e-06	2.749803009491371e-07	-6.07323180784175e-07	-2.620940965982906e-07	-4.284542177457938e-07
0.54	-0.2639636812219018	0.01881199629911708	0.7532052874942744	1.016249226991981	-0.455147553143837	-0.198563075264769	-0.2552732870564057	0.93689450007119	0.9368945000711901	-0.1075160000571832	-0.1701913929138523	0.2547496557525079	0.03067243689562317	-0.4961739536001833	-0.06717163653805462	-0.5075395613515762	1.997394994091674	-0.2061064718604275	0.7800763706444661	-0.1000127672800147	2.039955532835972	2.039955532835964	0.1474664366575178	-0.0359302996549966	0.7358974059311919	0.1831249440039128	-0.142756670488189	0.0338743857298247	-0.01256466862536126	-0.2427185607624529	-0.01194359237799552	0.0371507133866713	0.1516520059703526	-36.52505242739355	-13.92633519911585	6.666942365794561	1.346677521661513	-535.6327038950103	-67.41553658553296	-19.19677326119082	0.6220460154145601	0.3767341159229036	-0.2248762349938112	-1.673343932177463	0.7147752475466507	-0.5750507258079403	0.9327816235134401	-2.057310264665676	-2.057310264665692	-0.006960126375040315	0.1244063296607611	-0.9263941218913792	0.4923795996547818	-4.855692741160957e-07	2.533439099388039e-07	3.29174409730313e-06	2.946019195587417e-07	-5.77383058636852e-07	-1.280505736189926e-07	-4.043224009027964e-07
